<svg id="svg" xmlns="http://www.w3.org/2000/svg" xmlns:xlink="http://www.w3.org/1999/xlink" width="400"
    height="443.0868167202572" viewBox="0, 0, 400,443.0868167202572">
    <g id="svgg">
        <path id="path0"
            d="M209.909 37.734 C 209.349 38.733,207.976 41.431,206.857 43.730 L 204.823 47.910 198.894 48.401 C 187.409 49.352,187.185 50.183,196.259 58.201 L 199.900 61.418 198.860 68.375 C 197.531 77.272,197.672 77.387,205.247 73.582 C 212.154 70.113,211.483 70.111,218.690 73.619 C 226.481 77.411,226.786 77.051,224.762 66.472 L 223.801 61.448 228.942 56.717 C 236.193 50.045,235.797 49.122,225.388 48.438 L 219.243 48.034 216.213 42.184 C 212.886 35.760,211.546 34.814,209.909 37.734 M153.855 52.223 C 153.477 52.681,152.145 55.297,150.896 58.039 C 149.648 60.780,148.537 63.040,148.429 63.061 C 148.320 63.083,145.387 63.482,141.910 63.949 C 132.648 65.193,132.256 66.584,139.528 72.392 L 143.497 75.563 143.101 78.457 C 141.326 91.417,141.326 91.417,149.196 87.460 C 155.526 84.277,155.667 84.279,162.360 87.598 C 169.844 91.310,169.926 91.147,167.453 77.421 C 167.118 75.561,167.436 75.137,171.971 71.386 C 178.855 65.691,178.402 64.736,168.420 63.904 C 162.426 63.404,162.764 63.662,159.262 56.913 C 156.626 51.835,155.201 50.599,153.855 52.223 M266.632 52.855 C 266.097 53.672,264.776 56.289,263.697 58.670 C 261.554 63.397,261.695 63.312,254.763 63.988 C 246.190 64.824,245.549 66.405,251.716 71.506 C 256.832 75.736,256.578 75.022,255.550 82.315 C 254.284 91.298,254.666 91.590,262.259 87.451 C 268.056 84.291,268.295 84.291,274.598 87.460 C 282.377 91.371,282.358 91.390,280.919 81.092 L 280.163 75.688 284.776 71.542 C 291.257 65.718,290.886 64.834,281.593 63.953 C 275.473 63.373,275.780 63.601,272.547 57.231 C 269.597 51.419,268.233 50.409,266.632 52.855 M336.013 90.722 C 300.091 96.748,292.699 165.777,326.136 182.959 L 329.764 184.823 330.208 202.219 C 330.452 211.786,330.556 235.386,330.438 254.662 C 330.201 293.658,330.040 292.065,334.556 295.287 C 337.709 297.536,343.638 297.422,346.744 295.052 C 351.367 291.526,351.125 294.727,351.125 237.037 L 351.125 185.201 355.466 182.385 C 368.818 173.727,375.118 160.079,375.091 139.871 C 375.050 109.200,357.493 87.119,336.013 90.722 M57.808 95.148 L 55.907 97.049 56.089 132.929 L 56.270 168.810 57.846 172.026 C 60.048 176.518,65.137 181.384,69.639 183.302 L 73.361 184.887 73.242 237.447 L 73.124 290.006 74.768 292.491 C 77.892 297.211,83.815 298.468,88.530 295.411 C 93.948 291.898,93.547 296.377,93.744 237.207 L 93.920 184.704 96.317 184.269 C 103.410 182.983,110.585 177.453,113.454 171.059 C 115.944 165.511,116.194 162.593,116.014 141.158 C 115.926 130.547,115.831 116.136,115.804 109.133 L 115.756 96.402 114.054 94.825 C 111.715 92.657,107.927 92.658,105.759 94.826 L 104.180 96.405 104.176 126.177 C 104.173 157.210,103.962 159.951,101.440 161.717 C 99.195 163.290,95.659 162.975,93.842 161.042 L 92.283 159.383 91.961 127.867 L 91.640 96.351 89.836 94.799 C 87.403 92.707,84.072 92.719,81.964 94.826 L 80.386 96.405 80.386 127.012 C 80.386 153.055,80.241 157.900,79.415 159.498 C 77.555 163.095,73.420 163.791,70.169 161.056 L 68.213 159.410 68.030 127.988 L 67.846 96.566 66.287 94.907 C 64.020 92.495,60.357 92.599,57.808 95.148 M335.717 100.856 C 337.990 102.696,337.031 105.092,333.256 107.004 C 325.114 111.130,319.025 122.558,318.982 133.794 C 318.970 136.886,318.149 138.264,316.316 138.264 C 308.945 138.264,314.633 114.670,324.123 105.884 C 329.889 100.546,333.435 99.008,335.717 100.856 M180.896 114.285 C 182.584 122.726,181.704 128.828,177.566 137.393 C 168.441 156.280,173.978 174.986,191.217 183.509 C 195.740 185.745,195.815 185.687,194.081 181.312 C 190.721 172.836,191.951 166.277,199.328 153.335 C 206.813 140.203,199.945 122.685,183.984 114.200 L 180.509 112.352 180.896 114.285 M259.846 130.184 C 257.355 132.835,250.126 136.176,242.410 138.242 C 219.487 144.379,209.317 157.495,210.479 179.421 C 210.979 188.847,210.666 188.424,217.144 188.424 C 245.439 188.424,265.276 164.771,262.719 134.081 C 262.223 128.122,262.029 127.860,259.846 130.184 M211.254 199.839 C 138.303 200.020,145.322 199.390,145.357 205.750 C 145.368 207.716,145.656 211.473,145.997 214.098 C 146.727 219.727,147.057 219.185,142.450 219.935 C 131.732 221.679,129.650 232.096,138.585 239.267 C 143.183 242.957,153.367 246.945,158.192 246.945 C 159.376 246.945,161.024 248.143,164.006 251.167 C 201.217 288.912,263.027 272.171,276.285 220.757 C 278.490 212.203,278.787 201.518,276.849 200.413 C 275.904 199.873,258.520 199.721,211.254 199.839 M149.346 228.457 C 149.745 229.606,151.030 232.355,152.202 234.566 C 154.704 239.289,154.339 239.524,148.095 237.200 C 143.657 235.549,139.550 231.785,139.550 229.368 C 139.550 225.649,148.094 224.854,149.346 228.457 M123.091 271.750 C 114.503 275.988,117.796 289.795,128.585 294.787 C 132.849 296.760,288.700 296.943,294.322 294.981 C 305.841 290.962,309.543 276.591,300.276 271.866 C 298.319 270.868,295.858 270.741,278.421 270.741 L 258.771 270.740 256.556 272.399 C 236.000 287.797,187.804 287.797,167.238 272.398 L 165.023 270.740 145.052 270.754 C 128.465 270.766,124.743 270.935,123.091 271.750 M85.743 340.354 C 85.464 340.796,82.619 348.248,79.420 356.913 L 73.604 372.669 57.800 372.990 C 34.310 373.468,34.151 373.944,52.412 389.149 C 60.059 395.517,64.952 400.036,64.952 400.731 C 64.952 401.358,63.215 408.022,61.093 415.540 C 56.756 430.905,56.760 430.882,58.495 432.452 C 60.401 434.178,61.725 433.552,73.705 425.263 C 79.728 421.095,85.395 417.294,86.298 416.816 C 87.870 415.984,88.389 416.261,98.319 423.247 C 114.001 434.278,115.012 434.752,117.348 432.171 C 118.843 430.520,118.572 428.930,114.441 415.113 C 109.525 398.666,108.964 400.699,121.222 390.534 C 137.981 376.635,137.717 376.945,135.048 374.277 C 133.834 373.062,132.905 372.990,118.373 372.990 L 102.985 372.990 99.802 364.791 C 98.052 360.281,95.386 353.264,93.878 349.196 C 90.467 339.996,87.797 337.095,85.743 340.354 M207.032 342.205 C 206.287 343.665,203.663 350.538,201.200 357.477 C 194.997 374.957,197.748 372.990,179.506 372.990 C 156.102 372.990,155.958 373.720,176.067 390.479 C 181.272 394.817,185.924 398.744,186.405 399.207 C 187.452 400.216,187.226 401.255,182.555 416.889 C 177.174 434.903,178.447 437.134,189.616 429.259 C 202.948 419.858,209.075 416.014,210.158 416.371 C 210.761 416.570,215.595 419.763,220.900 423.467 C 234.365 432.866,235.723 433.653,237.653 433.168 C 241.413 432.225,241.276 430.971,235.123 409.991 C 233.571 404.698,232.432 400.024,232.593 399.605 C 232.754 399.185,238.237 394.420,244.778 389.016 C 258.711 377.503,259.204 376.889,256.592 374.277 C 255.379 373.064,254.448 372.990,240.272 372.990 C 229.020 372.990,225.074 372.788,224.588 372.186 C 224.231 371.744,222.019 366.174,219.674 359.807 C 211.976 338.913,212.283 339.550,209.902 339.550 C 208.773 339.550,208.041 340.228,207.032 342.205 M329.683 341.318 C 329.190 342.291,326.548 349.164,323.813 356.592 C 316.971 375.172,319.927 372.990,301.593 372.990 C 276.860 372.990,276.888 373.277,303.746 395.177 C 310.392 400.596,310.254 399.291,305.769 414.214 C 301.483 428.474,301.058 430.869,302.547 432.359 C 304.537 434.348,306.403 433.489,319.178 424.700 C 327.228 419.162,332.247 416.099,332.876 416.340 C 333.422 416.549,338.836 420.148,344.908 424.336 C 359.749 434.574,361.200 435.137,362.682 431.241 C 363.374 429.419,363.433 429.683,359.096 414.996 C 354.143 398.221,353.130 401.237,367.846 388.938 C 386.000 373.764,385.775 373.104,362.356 372.842 L 346.957 372.669 344.507 366.238 C 343.159 362.701,340.598 355.900,338.815 351.125 C 334.262 338.930,332.081 336.588,329.683 341.318 "
            stroke="none" fill="#ac3b61" fill-rule="evenodd"></path>
    </g>
</svg>